<!--?xml version="1.0" encoding="utf-8"?-->
<!-- Generator: Adobe Illustrator 18.1.1, SVG Export Plug-In . SVG Version: 6.00 Build 0)  -->

<svg version="1.1" id="_x31_0" xmlns="http://www.w3.org/2000/svg" xmlns:xlink="http://www.w3.org/1999/xlink" x="0px" y="0px" viewBox="0 0 512 512" style="width: 256px; height: 256px; opacity: 1;" xml:space="preserve">
<style type="text/css">
	.st0{fill:#374149;}
</style>
<g>
	<path class="st0" d="M135.031,262.898l-70.55-31.742c-5.36-2.414-10.848-0.289-10.848,4.383v109.133
		c0,4.676,5.492,6.797,10.851,4.382l70.547-31.773c1.34-0.645,2.274-2.188,2.274-3.668v-47.047
		C137.305,265.086,136.371,263.543,135.031,262.898z"></path>
	<path class="st0" d="M357.734,0c-15.211,0-29.57,3.512-42.492,9.594c-0.626,0.293-1.278,0.516-1.894,0.824
		c-2.465,1.223-4.813,2.633-7.161,4.047c-0.922,0.554-1.882,1.023-2.781,1.606c-2.274,1.469-4.41,3.113-6.555,4.758
		c-0.87,0.668-1.793,1.254-2.648,1.954c-2.258,1.851-4.367,3.87-6.461,5.906c-0.649,0.633-1.352,1.188-1.985,1.836
		c-1.71,1.766-3.266,3.672-4.847,5.555c-0.894,1.054-1.863,2.019-2.719,3.117c-7.054-9.11-15.641-16.957-25.347-23.211
		c-0.402-0.262-0.836-0.468-1.246-0.722c-2.793-1.746-5.645-3.406-8.614-4.875c-0.41-0.203-0.843-0.347-1.258-0.546
		C228.664,3.594,214.098,0,198.668,0C143.18,0,98.039,45.145,98.039,100.633s45.141,100.633,100.629,100.633
		c15.226,0,29.602-3.515,42.535-9.614c0.606-0.285,1.242-0.503,1.847-0.801c2.489-1.234,4.86-2.656,7.231-4.086
		c0.894-0.543,1.832-1,2.71-1.566c2.282-1.477,4.43-3.129,6.578-4.778c0.863-0.664,1.781-1.242,2.625-1.938
		c2.274-1.863,4.394-3.89,6.496-5.941c0.637-0.618,1.328-1.164,1.95-1.801c1.722-1.774,3.285-3.692,4.875-5.586
		c0.882-1.046,1.847-2,2.695-3.086c7.054,9.11,15.64,16.957,25.347,23.211c0.402,0.262,0.836,0.465,1.242,0.718
		c2.797,1.75,5.652,3.41,8.621,4.879c0.402,0.199,0.828,0.343,1.234,0.535c13.066,6.258,27.641,9.851,43.078,9.851
		c55.488,0,100.633-45.145,100.633-100.633S413.222,0,357.734,0z M357.734,141.379c-22.469,0-40.75-18.282-40.75-40.746
		c0-22.469,18.282-40.746,40.75-40.746c22.469,0,40.746,18.278,40.746,40.746C398.481,123.098,380.203,141.379,357.734,141.379z
		 M198.668,59.886c22.469,0,40.75,18.278,40.75,40.746c0,22.465-18.281,40.746-40.75,40.746c-22.465,0-40.746-18.282-40.746-40.746
		C157.922,78.164,176.203,59.886,198.668,59.886z"></path>
	<path class="st0" d="M396.09,229.195h-224.89c-7.492,0-13.621,6.129-13.621,13.622v127.246c0,7.492,6.129,13.621,13.621,13.621
		h42.738l11.902,0.024l-32.504,113.359l-0.39,1.351h0.004l-0.024,0.078L240.023,512l36.797-128.317h13.653L327.266,512
		l46.481-13.328l0.542-0.156l0,0l0.078-0.02l-26.062-90.882l-6.84-23.93h54.625c7.493,0,13.626-6.129,13.626-13.621V242.817
		C409.715,235.324,403.582,229.195,396.09,229.195z"></path>
</g>
</svg>
